<?xml version="1.0" encoding="UTF-8"?>
<svg width="14px" height="14px" viewBox="0 0 14 14" version="1.1" xmlns="http://www.w3.org/2000/svg" xmlns:xlink="http://www.w3.org/1999/xlink">
    <!-- Generator: Sketch 57 (83077) - https://sketch.com -->
    <title>库房</title>
    <desc>Created with Sketch.</desc>
    <g id="执行辅助中心" stroke="none" stroke-width="1" fill="none" fill-rule="evenodd">
        <g id="我的任务-&gt;-货物市场流向信息查询" transform="translate(-751.000000, -99.000000)">
            <g id="编组-16" transform="translate(116.000000, 26.000000)">
                <g id="编组-28">
                    <g id="编组-18" transform="translate(0.000000, 67.000000)">
                        <g id="编组-24"></g>
                    </g>
                </g>
            </g>
            <g id="库房" transform="translate(750.000000, 98.000000)" fill="#333333" fill-rule="nonzero">
                <path d="M9.67346939,7.42857142 L6.32653061,7.42857142 C5.60816327,7.42857142 5.02040816,6.84081631 5.02040816,6.12244898 L5.02040816,2.7755102 C5.02040816,2.05714286 5.60816327,1.46938775 6.32653061,1.46938775 L9.67346939,1.46938775 C10.3918367,1.46938775 10.9795918,2.05714286 10.9795918,2.7755102 L10.9795918,6.12244898 C10.9795918,6.84081633 10.3918367,7.42857142 9.67346939,7.42857142 L9.67346939,7.42857142 Z M6.32653061,2.12244898 C5.96734694,2.12244898 5.67346939,2.41632653 5.67346939,2.7755102 L5.67346939,6.12244898 C5.67346939,6.48163266 5.96734694,6.7755102 6.32653061,6.7755102 L9.67346939,6.7755102 C10.0326531,6.7755102 10.3265306,6.48163266 10.3265306,6.12244898 L10.3265306,2.7755102 C10.3265306,2.41632653 10.0326531,2.12244898 9.67346939,2.12244898 L6.32653061,2.12244898 Z M6.12244898,14.5306123 L2.7755102,14.5306123 C2.05714286,14.5306123 1.46938775,13.9428571 1.46938775,13.2244898 L1.46938775,9.87755102 C1.46938775,9.15918367 2.05714286,8.57142858 2.7755102,8.57142858 L6.12244898,8.57142858 C6.84081633,8.57142858 7.42857142,9.15918369 7.42857142,9.87755102 L7.42857142,13.2244898 C7.42857142,13.9428571 6.84081631,14.5306123 6.12244898,14.5306123 Z M2.7755102,9.2244898 C2.41632653,9.2244898 2.12244898,9.51836734 2.12244898,9.87755102 L2.12244898,13.2244898 C2.12244898,13.5836735 2.41632653,13.877551 2.7755102,13.877551 L6.12244898,13.877551 C6.48163266,13.877551 6.7755102,13.5836735 6.7755102,13.2244898 L6.7755102,9.87755102 C6.7755102,9.51836734 6.48163266,9.2244898 6.12244898,9.2244898 L2.7755102,9.2244898 Z M13.2244898,14.5306123 L9.87755102,14.5306123 C9.15918367,14.5306123 8.57142858,13.9428571 8.57142858,13.2244898 L8.57142858,9.87755102 C8.57142858,9.15918367 9.15918369,8.57142858 9.87755102,8.57142858 L13.2244898,8.57142858 C13.9428571,8.57142858 14.5306123,9.15918369 14.5306123,9.87755102 L14.5306123,13.2244898 C14.5306123,13.9428571 13.9428571,14.5306123 13.2244898,14.5306123 L13.2244898,14.5306123 Z M9.87755102,9.2244898 C9.51836734,9.2244898 9.2244898,9.51836734 9.2244898,9.87755102 L9.2244898,13.2244898 C9.2244898,13.5836735 9.51836734,13.877551 9.87755102,13.877551 L13.2244898,13.877551 C13.5836735,13.877551 13.877551,13.5836735 13.877551,13.2244898 L13.877551,9.87755102 C13.877551,9.51836734 13.5836735,9.2244898 13.2244898,9.2244898 L9.87755102,9.2244898 Z" id="形状"></path>
            </g>
        </g>
    </g>
</svg>