<?xml version="1.0" encoding="UTF-8"?>
<svg width="11px" height="14px" viewBox="0 0 11 14" version="1.1" xmlns="http://www.w3.org/2000/svg" xmlns:xlink="http://www.w3.org/1999/xlink">
    <!-- Generator: Sketch 57 (83077) - https://sketch.com -->
    <title>个人中心</title>
    <desc>Created with Sketch.</desc>
    <g id="执行辅助中心" stroke="none" stroke-width="1" fill="none" fill-rule="evenodd">
        <g id="我的任务-&gt;-货物市场流向信息查询" transform="translate(-392.000000, -100.000000)" fill-rule="nonzero">
            <g id="编组-16" transform="translate(116.000000, 26.000000)">
                <g id="编组-28">
                    <g id="编组-18" transform="translate(0.000000, 67.000000)">
                        <g id="编组-24">
                            <g id="个人中心" transform="translate(274.000000, 6.000000)">
                                <rect id="矩形" fill="#000000" opacity="0" x="0" y="0" width="16" height="16"></rect>
                                <path d="M7.67272727,11.4472727 C4.88363636,11.4472727 2.61818181,9.17818183 2.61818181,6.39272727 C2.61818181,3.6072727 4.88727272,1.33818181 7.67272727,1.33818181 C10.4581818,1.33818181 12.7272727,3.60363636 12.7272727,6.39272727 C12.7272727,9.18181817 10.4581818,11.4472727 7.67272727,11.4472727 Z M7.67272727,2.06545455 C5.28727272,2.06545455 3.34545455,4.00727273 3.34545455,6.39272727 C3.34545455,8.7781818 5.28727273,10.72 7.67272727,10.72 C10.0581818,10.72 12,8.77818181 12,6.39272727 C12,4.00727272 10.0581818,2.06545455 7.67272727,2.06545455 Z" id="形状" fill="#040000"></path>
                                <path d="M10.2036364,14.68 L5.14181819,14.68 C4.95272728,14.68 4.76727273,14.5927273 4.64,14.4436364 C4.49454545,14.2727273 4.42909091,14.0436364 4.46545455,13.8145455 C4.70545455,12.2327273 6.08363636,11.04 7.67272727,11.04 C8.28727272,11.04 8.88363636,11.2145455 9.4,11.5418182 C9.57090909,11.6509091 9.61818181,11.8727273 9.51272727,12.0436364 C9.40363636,12.2145455 9.18181817,12.2618182 9.01090909,12.1563636 C8.61090909,11.9018182 8.14909091,11.7672727 7.67272727,11.7672727 C6.44,11.7672727 5.37090908,12.6945455 5.18545455,13.9236364 L5.18545455,13.9527273 L10.16,13.9527273 L10.16,13.9272727 C10.12,13.6690909 10.0436364,13.4218182 9.93090909,13.1890909 C9.84363636,13.0072727 9.91636364,12.7927273 10.0981818,12.7018182 C10.28,12.6145455 10.4945455,12.6872727 10.5854545,12.8690909 C10.7309091,13.1709091 10.8327273,13.4872727 10.8836364,13.8181818 C10.92,14.0472727 10.8545455,14.2763636 10.7090909,14.4472727 C10.5781818,14.5963636 10.3927273,14.68 10.2036364,14.68 L10.2036364,14.68 Z" id="路径" fill="#040000"></path>
                            </g>
                        </g>
                    </g>
                </g>
            </g>
        </g>
    </g>
</svg>