<?xml version="1.0" encoding="UTF-8"?>
<svg width="14px" height="14px" viewBox="0 0 14 14" version="1.1" xmlns="http://www.w3.org/2000/svg" xmlns:xlink="http://www.w3.org/1999/xlink">
    <!-- Generator: Sketch 57 (83077) - https://sketch.com -->
    <title>用户管理</title>
    <desc>Created with Sketch.</desc>
    <g id="执行辅助中心" stroke="none" stroke-width="1" fill="none" fill-rule="evenodd">
        <g id="我的任务-&gt;-货物市场流向信息查询" transform="translate(-1214.000000, -103.000000)" fill-rule="nonzero">
            <g id="编组-16" transform="translate(116.000000, 26.000000)">
                <g id="编组-28">
                    <g id="编组-18" transform="translate(0.000000, 67.000000)">
                        <g id="编组-24">
                            <g id="编组-14备份" transform="translate(1097.000000, 9.000000)">
                                <g id="管理">
                                    <rect id="矩形" fill="#333333" opacity="0" x="0" y="0" width="16" height="16"></rect>
                                    <path d="M1.3884375,4.96046875 L2.015625,5.27578125 L3.50171875,6.02234375 L5.27390625,6.91296875 L6.7371875,7.64734375 C6.9971875,7.77796875 7.25703125,7.92859375 7.53046875,8.03015625 C7.919375,8.174375 8.3371875,8.10109375 8.698125,7.92078125 L9.015625,7.7621875 C9.3103954,7.61493651 9.74924957,7.39566568 10.3321875,7.104375 C10.9151254,6.81308432 11.4980421,6.52178224 12.0809375,6.23046875 L13.693125,5.42484375 L14.5815625,4.9809375 L14.6225,4.96046875 C14.93,4.806875 14.9309375,4.2990625 14.6225,4.14578125 L14.03125,3.85140625 L12.6020312,3.140625 L10.88,2.285 L9.390625,1.545 C9.1490625,1.42484375 8.90859375,1.3021875 8.66578125,1.1846875 L8.6553125,1.179375 C8.645625,1.1746875 8.63578125,1.17015625 8.62609375,1.16578125 C8.276875,1.0059375 7.87609375,0.95796875 7.50953125,1.099375 C7.43375,1.12875 7.35984375,1.161875 7.2871875,1.1978125 L6.96875,1.35703125 L5.6125,2.03484375 L3.81,2.93578125 L2.200625,3.7403125 C1.93359375,3.8734375 1.66203125,4 1.3996875,4.140625 L1.3884375,4.14625 C1.08015625,4.29984375 1.08109375,4.80609375 1.3884375,4.96046875 Z M3.88359375,3.9515625 L5.604375,3.0921875 L7.08546875,2.35203125 C7.31984375,2.23453125 7.5553125,2.11578125 7.79109375,1.999375 L7.7953125,1.9975 C7.83797786,1.98266663 7.88155853,1.97061018 7.92578125,1.96140625 C7.96876348,1.95882892 8.01186152,1.95882892 8.05484375,1.96140625 C8.09942144,1.97075649 8.14336328,1.98291617 8.18640625,1.9978125 L8.77171875,2.28890625 L10.2007813,2.99921875 L11.9228125,3.8553125 L13.3290625,4.5546875 L12.1178125,5.16 L10.3925,6.021875 L8.90015625,6.76765625 C8.66328125,6.8859375 8.426875,7.005625 8.189375,7.1228125 L8.18484375,7.12484375 C8.14238069,7.13960376 8.0990093,7.15160787 8.055,7.16078125 C8.0119159,7.16343742 7.9687091,7.16343742 7.925625,7.16078125 C7.88000079,7.15127221 7.83505821,7.13874467 7.79109375,7.12328125 C7.5990625,7.03375 7.411875,6.9321875 7.2228125,6.8371875 L5.80421875,6.125 L4.0871875,5.2625 L2.67765625,4.55453125 L3.88359375,3.9515625 Z" id="形状" fill="#333333"></path>
                                    <path d="M1.371875,7.3478125 L2,7.663125 L3.48609375,8.4096875 L5.25828125,9.3003125 L6.7215625,10.0346875 C6.9815625,10.1653125 7.24140625,10.3159375 7.51484375,10.4176563 C7.90375,10.5617188 8.3215625,10.4884375 8.68234375,10.3082813 L9,10.1496875 L10.3165625,9.49171875 L12.0653125,8.61796875 L13.6770313,7.8125 L14.5654688,7.3684375 L14.6064063,7.34796875 C14.828125,7.23734375 14.9075,6.90625 14.775625,6.703125 C14.6298437,6.476875 14.366875,6.41578125 14.1303125,6.53390625 L13.53125,6.8325 L12.1017187,7.546875 L10.3759375,8.40921875 L8.8834375,9.155 C8.6465625,9.2734375 8.4103125,9.39296875 8.1728125,9.51015625 L8.16828125,9.51234375 C8.12579275,9.52698053 8.08242593,9.53893119 8.0384375,9.548125 C7.9953534,9.55078117 7.9521466,9.55078117 7.9090625,9.548125 C7.8633871,9.53861597 7.81839255,9.52608848 7.774375,9.510625 C7.5825,9.42109375 7.3953125,9.31953125 7.20625,9.2246875 L5.78765625,8.51203125 L4.070625,7.64953125 L2.58328125,6.9025 C2.34171875,6.78125 2.10125,6.65734375 1.85859375,6.5384375 L1.848125,6.533125 C1.6278125,6.421875 1.32671875,6.4675 1.203125,6.703125 C1.08953125,6.9165625 1.13640625,7.22953125 1.371875,7.3478125 Z" id="路径" fill="#000000"></path>
                                    <path d="M14.146875,8.9125 L13.5478125,9.211875 L12.1182812,9.92625 L10.3925,10.7885938 L8.90015625,11.534375 C8.66328125,11.6526563 8.426875,11.7721875 8.189375,11.889375 L8.18484375,11.8915625 C8.14238069,11.9063225 8.0990093,11.9183266 8.055,11.9275 C8.0119159,11.9301562 7.9687091,11.9301562 7.925625,11.9275 C7.8799798,11.9180108 7.83503244,11.9054297 7.79109375,11.8898438 C7.5990625,11.8004688 7.411875,11.6989063 7.2228125,11.6039063 L5.80421875,10.8914063 L4.0871875,10.0289063 L2.59984375,9.28125 C2.35828125,9.15984375 2.1178125,9.03609375 1.87515625,8.9171875 L1.8646875,8.911875 C1.644375,8.801875 1.34375,8.84671875 1.21875,9.08171875 C1.105625,9.2959375 1.1525,9.60890625 1.38796875,9.7271875 L2.015625,10.0425 L3.50171875,10.7890625 L5.27390625,11.6796875 L6.7371875,12.4140625 C6.9971875,12.5446875 7.25703125,12.6953125 7.53046875,12.796875 C7.919375,12.9410938 8.3371875,12.8676562 8.698125,12.6875 L9.015625,12.5289063 L10.3321875,11.8710938 L12.0809375,10.9971875 L13.693125,10.1915625 L14.5815625,9.74765625 L14.6225,9.7271875 C14.84375,9.6165625 14.9235937,9.28625 14.791875,9.08171875 C14.6464062,8.85546875 14.3834375,8.79421875 14.146875,8.9125 Z" id="路径" fill="#000000"></path>
                                    <path d="M14.146875,11.0234375 L13.5478125,11.3228125 L12.1182813,12.0371875 L10.3925,12.8995312 L8.90015625,13.6453125 C8.66328125,13.76375 8.426875,13.8832812 8.189375,14.0004687 L8.18484375,14.0026562 C8.14235525,14.017293 8.09898843,14.0292437 8.055,14.0384375 C8.0119159,14.0410937 7.9687091,14.0410937 7.925625,14.0384375 C7.88000079,14.0289285 7.83505821,14.0164009 7.79109375,14.0009375 C7.5990625,13.9114062 7.411875,13.8098437 7.2228125,13.715 L5.80421875,13.0023437 L4.0871875,12.140625 L2.59984375,11.3935937 C2.35828125,11.2723437 2.1178125,11.1484375 1.87515625,11.0295312 L1.8646875,11.0242187 C1.644375,10.9128125 1.34375,10.9578125 1.21875,11.1928125 C1.105625,11.406875 1.1525,11.7198437 1.38796875,11.838125 L2.015625,12.1534375 L3.50171875,12.9 L5.27390625,13.790625 L6.7371875,14.525 C6.9971875,14.655625 7.25703125,14.80625 7.53046875,14.9079687 C7.919375,15.0520312 8.3371875,14.97875 8.698125,14.7985937 L9.015625,14.640625 L10.3321875,13.9826562 L12.0809375,13.1089062 L13.693125,12.3032812 L14.5820313,11.859375 L14.6229688,11.8389062 C14.8442188,11.7284375 14.9240625,11.3979687 14.7923438,11.1935937 C14.6464063,10.9664062 14.3834375,10.9053125 14.146875,11.0234375 L14.146875,11.0234375 Z" id="路径" fill="#333333"></path>
                                </g>
                            </g>
                        </g>
                    </g>
                </g>
            </g>
        </g>
    </g>
</svg>