<?xml version="1.0" encoding="UTF-8"?>
<svg width="15px" height="14px" viewBox="0 0 15 14" version="1.1" xmlns="http://www.w3.org/2000/svg" xmlns:xlink="http://www.w3.org/1999/xlink">
    <!-- Generator: Sketch 57 (83077) - https://sketch.com -->
    <title>任务树</title>
    <desc>Created with Sketch.</desc>
    <g id="执行辅助中心" stroke="none" stroke-width="1" fill="none" fill-rule="evenodd">
        <g id="我的任务-&gt;-货物市场流向信息查询" transform="translate(-230.000000, -94.000000)">
            <g id="编组-16" transform="translate(116.000000, 26.000000)">
                <g id="编组-28">
                    <g id="编组-18" transform="translate(0.000000, 67.000000)">
                        <g id="编组-24"></g>
                    </g>
                </g>
            </g>
            <g id="任务树" transform="translate(230.000000, 94.000000)" fill="#333333" fill-rule="nonzero">
                <path d="M9.70588235,2.8 C10.1931924,2.8 10.5882353,2.38213243 10.5882353,1.86666667 C10.5882353,1.35120091 10.1931924,0.933333333 9.70588235,0.933333333 L5.29411765,0.933333333 C4.9788833,0.933333333 4.68759475,1.11122565 4.52997757,1.39999999 C4.37236039,1.68877434 4.37236039,2.044559 4.52997757,2.33333334 C4.68759475,2.62210768 4.9788833,2.8 5.29411765,2.8 L9.70588235,2.8 Z M7.94117647,6.06666667 L10.5882353,6.06666667 C11.8065105,6.06666667 12.7941176,7.11133558 12.7941176,8.4 L12.7941176,9.0748 C12.7941176,9.33253288 12.5965962,9.54146669 12.3529412,9.54146669 C12.1092861,9.54146669 11.9117647,9.33253288 11.9117647,9.0748 L11.9117647,8.4 C11.9117647,7.62680135 11.3192004,7 10.5882353,7 L4.41176471,7 C4.06074288,7 3.724098,7.14749958 3.47588808,7.41005051 C3.22767817,7.67260144 3.08823529,8.02869691 3.08823529,8.4 L3.08823529,9.0748 C3.0882353,9.24152395 3.00414754,9.39558323 2.86764706,9.4789452 C2.73114659,9.56230718 2.56297106,9.56230718 2.42647058,9.4789452 C2.28997011,9.39558323 2.20588235,9.24152395 2.20588235,9.0748 L2.20588235,8.4 C2.20588235,7.11133558 3.19348952,6.06666667 4.41176471,6.06666667 L7.05882353,6.06666667 L7.05882353,4.86453333 C7.05882353,4.60680045 7.25634496,4.39786667 7.5,4.39786667 C7.74365504,4.39786667 7.94117647,4.60680045 7.94117647,4.86453333 L7.94117647,6.06666667 Z M5.29411765,3.73333333 C4.3194975,3.73333333 3.52941176,2.8975982 3.52941176,1.86666667 C3.52941176,0.835735134 4.3194975,0 5.29411765,0 L9.70588235,0 C10.6805025,0 11.4705882,0.835735134 11.4705882,1.86666667 C11.4705882,2.8975982 10.6805025,3.73333333 9.70588235,3.73333333 L5.29411765,3.73333333 Z M10.7576471,13.0666667 C11.0013021,13.0666667 11.1988235,13.2756005 11.1988235,13.5333333 C11.1988235,13.7910662 11.0013021,14 10.7576471,14 L10.5882353,14 C9.61361515,14 8.82352941,13.1642649 8.82352941,12.1333333 C8.82352941,11.1024018 9.61361515,10.2666667 10.5882353,10.2666667 L13.2352941,10.2666667 C14.2099143,10.2666667 15,11.1024018 15,12.1333333 C15,13.1642649 14.2099143,14 13.2352941,14 L12.5355882,14 C12.2919332,14 12.0944118,13.7910662 12.0944118,13.5333333 C12.0944118,13.2756005 12.2919332,13.0666667 12.5355882,13.0666667 L13.2352941,13.0666667 C13.7226042,13.0666667 14.1176471,12.6487991 14.1176471,12.1333333 C14.1176471,11.6178676 13.7226042,11.2 13.2352941,11.2 L10.5882353,11.2 C10.1009252,11.2 9.70588239,11.6178676 9.70588239,12.1333333 C9.70588239,12.6487991 10.1009252,13.0666666 10.5882353,13.0666667 L10.7576471,13.0666667 L10.7576471,13.0666667 Z M1.76470588,10.2666667 L4.41176471,10.2666667 C5.38638485,10.2666667 6.17647059,11.1024018 6.17647059,12.1333333 C6.17647059,13.1642649 5.38638485,14 4.41176471,14 L1.76470588,14 C0.790085736,14 0,13.1642649 0,12.1333333 C0,11.1024018 0.790085736,10.2666667 1.76470588,10.2666667 Z M1.76470588,11.2 C1.27739582,11.2 0.882352978,11.6178676 0.882352978,12.1333333 C0.882352978,12.6487991 1.27739582,13.0666667 1.76470588,13.0666667 L4.41176471,13.0666667 C4.89907476,13.0666667 5.29411761,12.6487991 5.29411761,12.1333333 C5.29411761,11.6178676 4.89907476,11.2 4.41176471,11.2 L1.76470588,11.2 Z" id="形状"></path>
            </g>
        </g>
    </g>
</svg>