<?xml version="1.0" encoding="UTF-8"?>
<svg width="14px" height="14px" viewBox="0 0 14 14" version="1.1" xmlns="http://www.w3.org/2000/svg" xmlns:xlink="http://www.w3.org/1999/xlink">
    <!-- Generator: Sketch 57 (83077) - https://sketch.com -->
    <title>供应链</title>
    <desc>Created with Sketch.</desc>
    <g id="执行辅助中心" stroke="none" stroke-width="1" fill="none" fill-rule="evenodd">
        <g id="我的任务-&gt;-货物市场流向信息查询" transform="translate(-1050.000000, -96.000000)">
            <g id="编组-16" transform="translate(116.000000, 26.000000)">
                <g id="编组-28">
                    <g id="编组-18" transform="translate(0.000000, 67.000000)">
                        <g id="编组-24"></g>
                    </g>
                </g>
            </g>
            <g id="供应链" transform="translate(1049.000000, 95.000000)" fill-rule="nonzero">
                <rect id="矩形" fill="#000000" opacity="0" x="0" y="0" width="16" height="16"></rect>
                <path d="M8,1.5 C8.3,1.5 8.5,1.7 8.5,2 C8.5,2.3 8.3,2.5 8,2.5 C4.95,2.5 2.5,4.95 2.5,8 C2.5,8.3 2.3,8.5 2,8.5 C1.7,8.5 1.5,8.3 1.5,8 C1.5,4.4 4.4,1.5 8,1.5 Z M8,14.5 C7.7,14.5 7.5,14.3 7.5,14 C7.5,13.7 7.7,13.5 8,13.5 C11.05,13.5 13.5,11.05 13.5,8 C13.5,7.7 13.7,7.5 14,7.5 C14.3,7.5 14.5,7.7 14.5,8 C14.5,11.6 11.6,14.5 8,14.5 Z" id="形状" fill="#333333"></path>
                <path d="M8.9,4.5 C8.7,4.7 8.4,4.7 8.2,4.5 C8,4.3 8,4 8.2,3.8 L9.25,2.75 C10.25,1.75 11.8,1.75 12.8,2.75 C13.8,3.75 13.8,5.3 12.8,6.3 L10.7,8.4 C9.7,9.4 8.15,9.4 7.15,8.4 C6.95,8.2 6.95,7.9 7.15,7.7 C7.35,7.5 7.65,7.5 7.85,7.7 C8.45,8.3 9.4,8.3 9.95,7.7 L12.05,5.6 C12.65,5 12.65,4.05 12.05,3.5 C11.45,2.9 10.5,2.9 9.95,3.5 L8.9,4.5 Z" id="路径" fill="#333333"></path>
                <path d="M7.3,10.8 C7.5,10.6 7.8,10.6 8,10.8 C8.2,11 8.2,11.3 8,11.5 L6.95,12.55 C5.95,13.55 4.4,13.55 3.4,12.55 C2.4,11.55 2.4,10 3.4,9 L5.5,6.9 C6.5,5.9 8.05,5.9 9.05,6.9 C9.25,7.1 9.25,7.4 9.05,7.6 C8.85,7.8 8.55,7.8 8.35,7.6 C7.75,7 6.8,7 6.25,7.6 L4.15,9.7 C3.55,10.3 3.55,11.25 4.15,11.8 C4.75,12.4 5.7,12.4 6.25,11.8 L7.3,10.8 L7.3,10.8 Z" id="路径" fill="#333333"></path>
            </g>
        </g>
    </g>
</svg>