<?xml version="1.0" encoding="UTF-8"?>
<svg width="9px" height="8px" viewBox="0 0 9 8" version="1.1" xmlns="http://www.w3.org/2000/svg" xmlns:xlink="http://www.w3.org/1999/xlink">
    <!-- Generator: Sketch 57 (83077) - https://sketch.com -->
    <title>形状</title>
    <desc>Created with Sketch.</desc>
    <g id="执行辅助中心" stroke="none" stroke-width="1" fill="none" fill-rule="evenodd">
        <g id="单证一致导入报关单号对比结果备份-4" transform="translate(-282.000000, -2150.000000)" fill="#FFFFFF" fill-rule="nonzero">
            <g id="编组-76备份" transform="translate(120.000000, 1954.000000)">
                <g id="编组-74" transform="translate(56.000000, 156.000000)">
                    <g id="编组-72备份-3" transform="translate(110.500000, 26.500000) scale(-1, 1) translate(-110.500000, -26.500000) translate(100.000000, 0.000000)">
                        <path d="M14.5907955,45.2014451 C12.3395964,45.3120178 10.4999986,46.5406653 10.4999986,46.9206536 C10.4999986,46.5406653 8.66039782,45.3120178 6.40979872,45.2014451 C6.30297841,45.1963653 6.19861579,45.2325485 6.12113629,45.3015264 C6.0436568,45.3705043 5.99986094,45.4662225 5.99999855,45.5662788 L5.99999855,45.9075386 C5.99999855,46.1015905 6.1624451,46.2616606 6.36959873,46.271811 C8.04299806,46.3537582 9.2129976,46.9801496 9.86999734,47.4549946 C10.1273972,47.6413404 10.4999986,48 10.4999986,48 C10.4999986,48 10.8725969,47.6413404 11.1299968,47.4555559 C11.7875966,46.9801496 12.9575961,46.3543195 14.6303954,46.2723723 C14.8375491,46.2622219 14.9999986,46.1021518 14.9999986,45.9080999 L14.9999986,45.5668401 C15.0002895,45.4667889 14.9566475,45.3710151 14.8792824,45.3019319 C14.8019172,45.2328487 14.6976188,45.1965192 14.5907955,45.2014451 L14.5907955,45.2014451 Z M9.05519766,44.2214458 C9.04526453,44.249317 9.04019955,44.2785039 9.04019767,44.3078833 L9.04019767,44.609292 C9.04019767,44.7613996 9.17219761,44.8843205 9.33479755,44.8843205 L11.6975966,44.8843205 C11.8601965,44.8843205 11.9921965,44.7608383 11.9921965,44.609292 L11.9921965,44.3078833 C11.9921569,44.2722976 11.9848246,44.2370489 11.9705965,44.204046 C12.8406336,43.6075119 13.200542,42.554401 12.8617955,41.596351 C12.5230489,40.6383009 11.5628497,39.993657 10.4841668,40.0000471 C9.40548388,40.0065327 8.45415545,40.662585 8.12850373,41.6246003 C7.80285201,42.5866156 8.17709495,43.635345 9.05519766,44.2214458 L9.05519766,44.2214458 Z M9.41219752,41.738893 C9.4569061,41.6968364 9.51769362,41.6731896 9.58109745,41.6731896 C9.64450128,41.6731896 9.7052888,41.6968364 9.74999738,41.738893 L10.4999971,42.4410575 L11.2505968,41.7394543 C11.3109389,41.683006 11.3988895,41.6609604 11.4813184,41.6816219 C11.5637473,41.7022834 11.6281316,41.7625131 11.6502183,41.8396229 C11.6723051,41.9167328 11.6487388,41.999008 11.5883966,42.0554564 L10.738797,42.8491099 L10.738797,44.277574 C10.7324213,44.3964486 10.6275315,44.4897705 10.5002971,44.4897705 C10.3730627,44.4897705 10.2681729,44.3964486 10.2617972,44.277574 L10.2617972,42.8491099 L9.41219752,42.0548951 C9.31921338,41.9675187 9.31921338,41.8262694 9.41219752,41.738893 L9.41219752,41.738893 Z M9.27899757,45.1155689 C9.15837863,45.1155689 9.06059766,45.2070402 9.06059766,45.3198758 C9.06059766,45.4327113 9.15837863,45.5241826 9.27899757,45.5241826 L11.7533966,45.5241826 C11.8740155,45.5241826 11.9717965,45.4327113 11.9717965,45.3198758 C11.9717965,45.2070402 11.8740155,45.1155689 11.7533966,45.1155689 L9.27899757,45.1155689 Z" id="形状"></path>
                    </g>
                </g>
            </g>
        </g>
    </g>
</svg>