<?xml version="1.0" encoding="UTF-8"?>
<svg width="14px" height="13px" viewBox="0 0 14 13" version="1.1" xmlns="http://www.w3.org/2000/svg" xmlns:xlink="http://www.w3.org/1999/xlink">
    <!-- Generator: Sketch 57 (83077) - https://sketch.com -->
    <title>形状 2</title>
    <desc>Created with Sketch.</desc>
    <g id="页面-1" stroke="none" stroke-width="1" fill="none" fill-rule="evenodd">
        <g id="执行辅助中心&gt;-货物信息识别&gt;符合性核查比对结果" transform="translate(-858.000000, -114.000000)" fill="#333333" fill-rule="nonzero">
            <g id="形状-2" transform="translate(858.000000, 114.000000)">
                <path d="M13.7203125,4.56796875 L11.8171875,5.66484375 L11.8171875,9.99609375 C11.8171875,10.1523437 11.7328125,10.2960937 11.59375,10.3773437 L7.21875,12.9320312 C7.14375,12.9757812 7.059375,12.9976562 6.975,12.9976562 C6.890625,12.9976562 6.80625,12.9757812 6.73125,12.9320312 L2.35625,10.3773437 C2.2171875,10.2960937 2.1328125,10.1523437 2.1328125,9.99609375 L2.1328125,5.66328125 L0.2265625,4.56796875 C0.0859375,4.48671875 -9.05941988e-14,4.34140625 -9.05941988e-14,4.18515625 C-9.05941988e-14,4.02890625 0.0859375,3.88359375 0.2265625,3.80234375 L6.7328125,0.06328125 C6.88125,-0.02109375 7.065625,-0.02109375 7.2140625,0.06328125 L13.7203125,3.80234375 C13.8609375,3.88359375 13.946875,4.02890625 13.946875,4.18515625 C13.946875,4.34140625 13.8609375,4.48671875 13.7203125,4.56796875 Z M6.9734375,0.96640625 L1.3734375,4.18515625 L6.9734375,7.40390625 L12.5734375,4.18515625 L6.9734375,0.96640625 Z M10.88125,6.20078125 L7.2140625,8.30859375 C7.140625,8.35078125 7.05625,8.37265625 6.9734375,8.37265625 C6.890625,8.37265625 6.80625,8.35078125 6.7328125,8.30859375 L3.065625,6.20078125 L3.065625,9.74765625 L6.9734375,12.0304687 L10.88125,9.74765625 L10.88125,6.20078125 Z M13.5328125,5.36484375 C13.790625,5.36484375 14,5.56484375 14,5.81171875 L14,8.32265625 C14,8.56953125 13.790625,8.76953125 13.5328125,8.76953125 C13.275,8.76953125 13.065625,8.56953125 13.065625,8.32265625 L13.065625,5.81171875 C13.065625,5.56484375 13.275,5.36484375 13.5328125,5.36484375 Z" id="形状"></path>
            </g>
        </g>
    </g>
</svg>