<?xml version="1.0" encoding="UTF-8"?>
<svg width="16px" height="16px" viewBox="0 0 16 16" version="1.1" xmlns="http://www.w3.org/2000/svg" xmlns:xlink="http://www.w3.org/1999/xlink">
    <!-- Generator: Sketch 57 (83077) - https://sketch.com -->
    <title>编组 26</title>
    <desc>Created with Sketch.</desc>
    <g id="页面-1" stroke="none" stroke-width="1" fill="none" fill-rule="evenodd">
        <g id="iPhone-8" transform="translate(-138.000000, -325.000000)" fill-rule="nonzero">
            <g id="编组-26" transform="translate(138.000000, 325.000000)">
                <g id="风险提示">
                    <rect id="矩形" fill="#000000" opacity="0" x="0" y="0" width="16" height="16"></rect>
                    <path d="M8,1.2 C7.7790861,1.2 7.6,1.0209139 7.6,0.8 L7.6,0.4 C7.6,0.1790861 7.7790861,0 8,0 C8.2209139,0 8.4,0.1790861 8.4,0.4 L8.4,0.8 C8.4,0.906086596 8.35785726,1.00782816 8.28284271,1.08284271 C8.20782816,1.15785726 8.1060866,1.2 8,1.2 L8,1.2 Z M0.8,8.4 L0.4,8.4 C0.1790861,8.4 0,8.2209139 0,8 C0,7.7790861 0.1790861,7.6 0.4,7.6 L0.8,7.6 C1.0209139,7.6 1.2,7.7790861 1.2,8 C1.2,8.2209139 1.0209139,8.4 0.8,8.4 Z M15.6,8.4 L15.2,8.4 C14.9790861,8.4 14.8,8.2209139 14.8,8 C14.8,7.7790861 14.9790861,7.6 15.2,7.6 L15.6,7.6 C15.8209139,7.6 16,7.7790861 16,8 C16,8.2209139 15.8209139,8.4 15.6,8.4 L15.6,8.4 Z M9,16 L7,16 C5.6766,16 4.6,14.9234 4.6,13.6 L4.6,12.9412 C2.9678,11.8214 2,9.9906 2,8 C2,4.6916 4.6916,2 8,2 C11.3084,2 14,4.6916 14,8 C14,9.9908 13.0322,11.8214 11.4,12.9412 L11.4,13.6 C11.4,14.9234 10.3234,16 9,16 Z M8,2.8 C5.1328,2.8 2.8,5.1328 2.8,8 C2.8,9.7896 3.7024,11.43 5.2142,12.388 C5.3298,12.4616 5.4,12.5888 5.4,12.726 L5.4,13.6 C5.4,14.4822 6.1178,15.2 7,15.2 L9,15.2 C9.8822,15.2 10.6,14.4822 10.6,13.6 L10.6,12.726 C10.6,12.5888 10.6702,12.4616 10.786,12.3882 C12.2974,11.43 13.2,9.7896 13.2,8 C13.2,5.1328 10.8674,2.8 8,2.8 Z M2.909,3.30880035 C2.80292894,3.3089405 2.70116749,3.26683975 2.6262,3.1918 L2.3432,2.909 C2.23918247,2.80860685 2.19742794,2.65990053 2.23398475,2.5200362 C2.27054155,2.38017187 2.37972062,2.27091556 2.51955906,2.23425985 C2.6593975,2.19760415 2.80813331,2.23925349 2.9086,2.3432 L3.1916,2.626 C3.3059375,2.74037195 3.34015584,2.91234045 3.27830955,3.0617695 C3.21646325,3.21119856 3.07072196,3.30868464 2.909,3.30880035 Z M13.0912,3.30900047 C12.9294931,3.30896555 12.7837135,3.21157028 12.7217828,3.0621925 C12.659852,2.91281471 12.693954,2.74084211 12.8082,2.6264 L13.091,2.3434 C13.2471309,2.18710342 13.5004034,2.1869691 13.6567,2.3431 C13.8129966,2.4992309 13.8131309,2.75250342 13.657,2.9088 L13.3742,3.1918 C13.299229,3.26698102 13.1973735,3.30916286 13.0912,3.30900047 L13.0912,3.30900047 Z" id="形状" fill="#BCC7DF"></path>
                    <path d="M9,14.5628 L7,14.5628 C6.7790861,14.5628 6.6,14.3837139 6.6,14.1628 C6.6,13.9418861 6.7790861,13.7628 7,13.7628 L9,13.7628 C9.2209139,13.7628 9.4,13.9418861 9.4,14.1628 C9.4,14.3837139 9.2209139,14.5628 9,14.5628 L9,14.5628 Z" id="路径" fill="#BCC7DF"></path>
                    <path d="M7.9998,11.6000001 C7.86125798,11.599737 7.73269629,11.5278736 7.65989591,11.4100006 C7.58709554,11.2921275 7.58040243,11.144996 7.6422,11.021 L8.9528,8.4 L6.4,8.4 C6.2579978,8.39979722 6.12672574,8.32439753 6.05500106,8.20184045 C5.98327638,8.07928338 5.98183008,7.92790513 6.0512,7.804 L7.8512,4.604 C7.92125978,4.47942148 8.05245953,4.40168263 8.19537758,4.40004125 C8.33829564,4.39845122 8.47121933,4.47320412 8.54407759,4.59616693 C8.61693586,4.71912974 8.61865979,4.87162149 8.5486,4.9962 L7.084,7.6 L9.6,7.6 C9.73871512,7.59985761 9.8675908,7.67162822 9.94051154,7.78963021 C10.0134323,7.9076322 10.0199756,8.05499958 9.9578,8.179 L8.3578,11.379 C8.28997431,11.514543 8.15136585,11.6001085 7.9998,11.6000001 L7.9998,11.6000001 Z" id="路径" fill="#BCC7DF"></path>
                </g>
            </g>
        </g>
    </g>
</svg>